<svg width="694" height="104" viewBox="0 0 694 104" fill="none" xmlns="http://www.w3.org/2000/svg">
<path d="M94.9115 34.456C100.608 34.456 105.28 35.192 108.928 36.664C112.64 38.072 115.392 40.216 117.184 43.096C118.976 45.976 119.872 49.592 119.872 53.944C119.872 57.592 119.2 60.632 117.856 63.064C116.512 65.496 114.784 67.448 112.672 68.92C110.624 70.328 108.448 71.448 106.144 72.28L124.96 103H114.88L98.2715 74.68H84.6395V103H75.9995V34.456H94.9115ZM94.4315 41.944H84.6395V67.384H94.9115C98.6235 67.384 101.664 66.904 104.032 65.944C106.4 64.92 108.128 63.448 109.216 61.528C110.368 59.608 110.944 57.208 110.944 54.328C110.944 51.32 110.336 48.92 109.12 47.128C107.968 45.336 106.176 44.024 103.744 43.192C101.312 42.36 98.2075 41.944 94.4315 41.944ZM154.054 50.68C160.326 50.68 164.966 52.056 167.974 54.808C170.982 57.56 172.486 61.944 172.486 67.96V103H166.342L164.71 95.704H164.326C162.854 97.56 161.318 99.128 159.718 100.408C158.182 101.624 156.39 102.52 154.342 103.096C152.358 103.672 149.926 103.96 147.046 103.96C143.974 103.96 141.19 103.416 138.694 102.328C136.262 101.24 134.342 99.576 132.934 97.336C131.526 95.032 130.822 92.152 130.822 88.696C130.822 83.576 132.838 79.64 136.87 76.888C140.902 74.072 147.11 72.536 155.494 72.28L164.23 71.992V68.92C164.23 64.632 163.302 61.656 161.446 59.992C159.59 58.328 156.966 57.496 153.574 57.496C150.886 57.496 148.326 57.912 145.894 58.744C143.462 59.512 141.19 60.408 139.078 61.432L136.486 55.096C138.726 53.88 141.382 52.856 144.454 52.024C147.526 51.128 150.726 50.68 154.054 50.68ZM156.55 78.136C150.15 78.392 145.702 79.416 143.206 81.208C140.774 83 139.558 85.528 139.558 88.792C139.558 91.672 140.422 93.784 142.15 95.128C143.942 96.472 146.214 97.144 148.966 97.144C153.318 97.144 156.934 95.96 159.814 93.592C162.694 91.16 164.134 87.448 164.134 82.456V77.848L156.55 78.136ZM231.387 51.544V103H224.475L223.227 96.184H222.843C221.755 97.976 220.347 99.448 218.619 100.6C216.891 101.752 215.003 102.584 212.955 103.096C210.907 103.672 208.763 103.96 206.523 103.96C202.427 103.96 198.971 103.32 196.155 102.04C193.403 100.696 191.323 98.648 189.915 95.896C188.507 93.144 187.803 89.592 187.803 85.24V51.544H196.347V84.664C196.347 88.76 197.275 91.832 199.131 93.88C200.987 95.928 203.867 96.952 207.771 96.952C211.611 96.952 214.619 96.248 216.795 94.84C219.035 93.368 220.603 91.256 221.499 88.504C222.459 85.688 222.939 82.296 222.939 78.328V51.544H231.387ZM256.171 103H247.723V30.04H256.171V103Z" fill="#1ABC9C"/>
<path d="M293.07 103L276.558 49.24H276.174C276.238 50.52 276.334 52.44 276.462 55C276.59 57.56 276.718 60.312 276.846 63.256C276.974 66.136 277.038 68.76 277.038 71.128V103H264.078V34.456H283.854L300.078 86.872H300.366L317.55 34.456H337.326V103H323.79V70.552C323.79 68.376 323.822 65.88 323.886 63.064C324.014 60.248 324.11 57.592 324.174 55.096C324.302 52.536 324.398 50.616 324.462 49.336H324.078L306.414 103H293.07ZM374.992 49.528C382.032 49.528 387.408 51.064 391.12 54.136C394.896 57.144 396.784 61.784 396.784 68.056V103H386.8L384.016 95.896H383.632C382.16 97.752 380.624 99.288 379.024 100.504C377.488 101.72 375.696 102.584 373.648 103.096C371.664 103.672 369.2 103.96 366.256 103.96C363.184 103.96 360.4 103.384 357.904 102.232C355.472 101.016 353.552 99.192 352.144 96.76C350.736 94.264 350.032 91.128 350.032 87.352C350.032 81.784 351.984 77.688 355.888 75.064C359.792 72.376 365.648 70.904 373.456 70.648L382.576 70.36V68.056C382.576 65.304 381.84 63.288 380.368 62.008C378.96 60.728 376.976 60.088 374.416 60.088C371.856 60.088 369.36 60.472 366.928 61.24C364.496 61.944 362.064 62.84 359.632 63.928L354.928 54.232C357.744 52.76 360.848 51.608 364.24 50.776C367.696 49.944 371.28 49.528 374.992 49.528ZM377.008 78.904C372.4 79.032 369.2 79.864 367.408 81.4C365.616 82.936 364.72 84.952 364.72 87.448C364.72 89.624 365.36 91.192 366.64 92.152C367.92 93.048 369.584 93.496 371.632 93.496C374.704 93.496 377.296 92.6 379.408 90.808C381.52 88.952 382.576 86.36 382.576 83.032V78.712L377.008 78.904ZM428.034 103.96C422.21 103.96 417.442 101.688 413.73 97.144C410.082 92.536 408.258 85.784 408.258 76.888C408.258 67.928 410.114 61.144 413.826 56.536C417.538 51.928 422.402 49.624 428.418 49.624C430.914 49.624 433.122 49.976 435.042 50.68C436.962 51.32 438.594 52.216 439.938 53.368C441.346 54.52 442.53 55.832 443.49 57.304H443.97C443.778 56.28 443.554 54.808 443.298 52.888C443.042 50.904 442.914 48.888 442.914 46.84V30.04H457.218V103H446.274L443.49 96.184H442.914C442.018 97.592 440.866 98.904 439.458 100.12C438.114 101.272 436.514 102.2 434.658 102.904C432.802 103.608 430.594 103.96 428.034 103.96ZM433.026 92.536C436.994 92.536 439.778 91.384 441.378 89.08C442.978 86.712 443.81 83.192 443.874 78.52V76.984C443.874 71.864 443.074 67.96 441.474 65.272C439.938 62.584 437.058 61.24 432.834 61.24C429.698 61.24 427.234 62.616 425.442 65.368C423.65 68.056 422.754 71.96 422.754 77.08C422.754 82.2 423.65 86.072 425.442 88.696C427.234 91.256 429.762 92.536 433.026 92.536ZM493.776 49.624C498.64 49.624 502.8 50.552 506.256 52.408C509.776 54.264 512.496 56.952 514.416 60.472C516.336 63.992 517.296 68.312 517.296 73.432V80.344H483.504C483.632 84.376 484.816 87.544 487.056 89.848C489.36 92.152 492.528 93.304 496.56 93.304C499.952 93.304 503.024 92.984 505.776 92.344C508.528 91.64 511.376 90.584 514.32 89.176V100.216C511.76 101.496 509.04 102.424 506.16 103C503.344 103.64 499.92 103.96 495.888 103.96C490.64 103.96 486 103 481.968 101.08C477.936 99.096 474.768 96.12 472.464 92.152C470.16 88.184 469.008 83.192 469.008 77.176C469.008 71.032 470.032 65.944 472.08 61.912C474.192 57.816 477.104 54.744 480.816 52.696C484.528 50.648 488.848 49.624 493.776 49.624ZM493.872 59.8C491.12 59.8 488.816 60.696 486.96 62.488C485.168 64.28 484.112 67.064 483.792 70.84H503.856C503.856 68.728 503.472 66.84 502.704 65.176C502 63.512 500.912 62.2 499.44 61.24C497.968 60.28 496.112 59.8 493.872 59.8ZM558.174 49.624C558.878 49.624 559.71 49.656 560.67 49.72C561.63 49.784 562.398 49.88 562.974 50.008L561.918 63.448C561.47 63.32 560.798 63.224 559.902 63.16C559.07 63.032 558.334 62.968 557.694 62.968C555.838 62.968 554.046 63.224 552.318 63.736C550.59 64.184 549.022 64.92 547.614 65.944C546.27 66.968 545.182 68.344 544.35 70.072C543.582 71.736 543.198 73.816 543.198 76.312V103H528.894V50.584H539.742L541.854 59.416H542.526C543.55 57.624 544.83 55.992 546.366 54.52C547.902 53.048 549.662 51.864 551.646 50.968C553.694 50.072 555.87 49.624 558.174 49.624ZM618.229 76.696C618.229 81.048 617.621 84.92 616.405 88.312C615.253 91.704 613.557 94.584 611.317 96.952C609.141 99.256 606.485 101.016 603.349 102.232C600.213 103.384 596.661 103.96 592.693 103.96C589.045 103.96 585.653 103.384 582.517 102.232C579.445 101.016 576.789 99.256 574.549 96.952C572.309 94.584 570.549 91.704 569.269 88.312C568.053 84.92 567.445 81.048 567.445 76.696C567.445 70.872 568.469 65.976 570.517 62.008C572.565 57.976 575.509 54.904 579.349 52.792C583.189 50.68 587.733 49.624 592.981 49.624C597.909 49.624 602.261 50.68 606.037 52.792C609.813 54.904 612.789 57.976 614.965 62.008C617.141 65.976 618.229 70.872 618.229 76.696ZM582.037 76.696C582.037 80.152 582.389 83.064 583.093 85.432C583.861 87.736 585.045 89.496 586.645 90.712C588.245 91.864 590.325 92.44 592.885 92.44C595.445 92.44 597.493 91.864 599.029 90.712C600.629 89.496 601.781 87.736 602.485 85.432C603.253 83.064 603.637 80.152 603.637 76.696C603.637 73.24 603.253 70.36 602.485 68.056C601.781 65.752 600.629 64.024 599.029 62.872C597.429 61.72 595.349 61.144 592.789 61.144C589.013 61.144 586.261 62.456 584.533 65.08C582.869 67.64 582.037 71.512 582.037 76.696Z" fill="#E67E22"/>
</svg>
