<svg width="138" height="74" viewBox="0 0 138 74" fill="none" xmlns="http://www.w3.org/2000/svg">
<path d="M45.9097 16.304C49.7071 16.304 52.8218 16.7947 55.2538 17.776C57.7284 18.7147 59.5631 20.144 60.7578 22.064C61.9524 23.984 62.5498 26.3947 62.5498 29.296C62.5498 31.728 62.1018 33.7547 61.2058 35.376C60.3098 36.9973 59.1578 38.2987 57.7498 39.28C56.3844 40.2187 54.9338 40.9653 53.3978 41.52L65.9418 62H59.2218L48.1498 43.12H39.0618V62H33.3018V16.304H45.9097ZM45.5898 21.296H39.0618V38.256H45.9097C48.3844 38.256 50.4111 37.936 51.9898 37.296C53.5684 36.6133 54.7204 35.632 55.4458 34.352C56.2138 33.072 56.5978 31.472 56.5978 29.552C56.5978 27.5467 56.1924 25.9467 55.3818 24.752C54.6138 23.5573 53.4191 22.6827 51.7978 22.128C50.1764 21.5733 48.1071 21.296 45.5898 21.296Z" fill="#1ABC9C"/>
<path d="M95.7068 62L86.1708 26.16H85.9148C85.9574 27.0133 86.0214 28.2933 86.1068 30C86.1921 31.7067 86.2774 33.5413 86.3628 35.504C86.4481 37.424 86.4908 39.1733 86.4908 40.752V62H77.2748V16.304H91.2268L100.763 51.248H100.955L110.747 16.304H124.699V62H115.099V40.368C115.099 38.9173 115.12 37.2533 115.163 35.376C115.205 33.4987 115.269 31.728 115.355 30.064C115.44 28.3573 115.504 27.0773 115.547 26.224H115.291L105.435 62H95.7068Z" fill="#E67E22"/>
</svg>
